<?xml version="1.0" encoding="iso-8859-1"?>
<!-- Uploaded to: SVG Repo, www.svgrepo.com, Generator: SVG Repo Mixer Tools -->
<svg version="1.1" id="Layer_1" xmlns="http://www.w3.org/2000/svg" xmlns:xlink="http://www.w3.org/1999/xlink" 
	 viewBox="0 0 337.865 337.865" xml:space="preserve">
<g>
	<g>
		<path style="fill:#FFA400;" d="M181.147,283.76c18.503,18.502,48.503,18.504,67.005,0.002l35.601-35.602
			c18.505-18.506,18.503-48.504,0-67.008l-167.27-167.27c-18.502-18.504-48.502-18.504-67.006,0l-35.6,35.6
			c-18.503,18.504-18.503,48.504,0,67.008L181.147,283.76z"/>
	</g>
	<g>
		<path style="fill:#F6C65B;" d="M181.147,283.76c18.503,18.502,48.503,18.504,67.005,0.002l35.601-35.602
			c18.505-18.506,18.503-48.504,0-67.008l-29.664-29.664c-18.503-18.504-48.503-18.504-67.006,0l-35.6,35.6
			c-18.503,18.504-18.503,48.504-0.001,67.006L181.147,283.76z"/>
	</g>
	<path style="fill:#5C6670;" d="M216.747,181.152c18.504-18.504,48.503-18.504,67.006,0s18.505,48.502,0,67.008l-35.601,35.602
		c-18.503,18.502-48.503,18.5-67.005-0.002c-18.503-18.504-18.503-48.502-0.001-67.006L216.747,181.152z"/>
	
		<rect x="208.443" y="202.376" transform="matrix(-0.7071 -0.7071 0.7071 -0.7071 250.9879 605.9455)" style="fill:#A4A9AD;" width="85.092" height="97.231"/>
	
		<rect x="276.44" y="243.665" transform="matrix(-0.7071 -0.7071 0.7071 -0.7071 292.2872 705.6306)" style="fill:#3E4A57;" width="31.69" height="97.232"/>
	
		<rect x="289.941" y="249.267" transform="matrix(-0.7071 -0.7071 0.7071 -0.7071 297.8484 719.1376)" style="fill:#5C6670;" width="15.844" height="97.231"/>
	
		<rect x="266.791" y="235.373" transform="matrix(-0.7071 -0.7071 0.7071 -0.7071 311.2162 609.151)" style="fill:#3E4A57;" width="29.954" height="9.496"/>
	
		<rect x="225.129" y="277.032" transform="matrix(-0.7071 -0.7071 0.7071 -0.7071 210.6385 650.8088)" style="fill:#3E4A57;" width="29.954" height="9.495"/>
	<path style="fill:#3E4A57;" d="M121.493,145.123l-13.382-13.381l-4.364,4.363l-11.24-11.24l0.001-26.838l41.933,41.932
		l-7.733,7.734l24.604,4.484l-4.484-24.603l-7.732,7.73L86.109,82.318h26.838l4.061,4.061c-2.048,4.012-1.399,9.047,1.958,12.404
		c4.169,4.168,10.929,4.17,15.099,0c4.17-4.172,4.17-10.932,0.001-15.102c-3.357-3.355-8.391-4.006-12.403-1.957l-5.987-5.988
		H79.528l-4.063-4.061c3.63-5.752,2.951-13.441-2.06-18.453c-5.813-5.814-15.235-5.814-21.048,0c-5.813,5.813-5.812,15.234,0,21.047
		c5.011,5.01,12.702,5.691,18.453,2.061l15.117,15.115l-0.001,36.148l13.168,13.166l-4.364,4.363l13.382,13.383L121.493,145.123z"/>
</g>
</svg>